<svg xmlns="http://www.w3.org/2000/svg" viewBox="0 0 342.93 342.93"><defs><style>.cls-1{fill:#1d1d1b;}</style></defs><title>Asset 6</title><g id="Layer_2" data-name="Layer 2"><g id="Layer_1-2" data-name="Layer 1"><path class="cls-1" d="M171.47,0A171.47,171.47,0,1,0,342.93,171.47,171.47,171.47,0,0,0,171.47,0Zm42.46,298.37c-.19.06-.37.1-.55.14h0a130.41,130.41,0,0,1-39.16,1.77,154.93,154.93,0,0,1-71.37-26.4,129.36,129.36,0,0,1-27.67-25.71.82.82,0,0,1,.13-1.16.83.83,0,0,1,1.12.08,126.43,126.43,0,0,0,29,22.8A146.23,146.23,0,0,0,139.09,284a141.38,141.38,0,0,0,35.77,5.37A117.79,117.79,0,0,0,210,284.93a7,7,0,1,1,3.94,13.44ZM265.23,259c-.18.13-.38.26-.56.37a103.48,103.48,0,0,1-30.92,12,139.75,139.75,0,0,1-32,3.1,188.41,188.41,0,0,1-115-42.93,136.66,136.66,0,0,1-21.28-22.39A98.33,98.33,0,0,1,51,182a1.07,1.07,0,0,1,.67-1.36,1.06,1.06,0,0,1,1.33.6v0a95.31,95.31,0,0,0,15.86,25.14,131,131,0,0,0,21.9,20.06,175.55,175.55,0,0,0,53,25.93,171.77,171.77,0,0,0,57.78,7.21,124.24,124.24,0,0,0,28.08-4.69,85.54,85.54,0,0,0,24.71-11.54l.06,0A9.51,9.51,0,0,1,265.23,259Zm35.08-62.79-.07.16a64.19,64.19,0,0,1-10.39,15.06,74.07,74.07,0,0,1-13.55,11.47,99.31,99.31,0,0,1-31.08,13.31,128,128,0,0,1-16.18,3,147.53,147.53,0,0,1-16.22,1.06c-1.35,0-2.69,0-4,0l-4-.08c-2.68-.14-5.37-.23-8-.49-5.34-.39-10.63-1.13-15.89-2a206.11,206.11,0,0,1-60-20.23,186,186,0,0,1-26.74-17c-4.22-3.2-8.24-6.65-12.15-10.24a146.21,146.21,0,0,1-11-11.52,122.9,122.9,0,0,1-9.59-12.82,102.53,102.53,0,0,1-7.64-14.2,70.49,70.49,0,0,1-6.16-31.89,56.72,56.72,0,0,1,3.32-16.14,55.51,55.51,0,0,1,7.88-14.37C65.37,80.55,74.2,74,83.64,69.3a107.69,107.69,0,0,1,29.89-9.25A143.57,143.57,0,0,1,129,58.42c5.16-.24,10.33-.23,15.47,0a183.5,183.5,0,0,1,30.49,4.19,208.17,208.17,0,0,1,29.31,9,.54.54,0,0,1-.37,1h0a205.39,205.39,0,0,0-29.4-7.7,180.53,180.53,0,0,0-30.12-2.83c-5,0-10.06.18-15.06.63A136.46,136.46,0,0,0,114.44,65,101.59,101.59,0,0,0,86.55,74.9C78,79.62,70.33,85.92,65,93.73a46.81,46.81,0,0,0-8.45,26.4A60.91,60.91,0,0,0,63,147.42a93.33,93.33,0,0,0,7.36,12.37A113.21,113.21,0,0,0,79.59,171a139.72,139.72,0,0,0,10.53,10.11c3.74,3.14,7.58,6.17,11.6,9a174.44,174.44,0,0,0,25.44,14.65,190.7,190.7,0,0,0,56.13,16.31c4.83.57,9.66,1,14.49,1.18,2.41.14,4.82.1,7.23.13l3.6-.08c1.21,0,2.4-.08,3.6-.16a130.89,130.89,0,0,0,14.2-1.55,107.32,107.32,0,0,0,13.73-3.13,79.21,79.21,0,0,0,24.37-11.61,47,47,0,0,0,15.83-18.91,11,11,0,1,1,20.17,8.8C300.45,195.88,300.38,196,300.31,196.16Z"/></g></g></svg>