<svg xmlns="http://www.w3.org/2000/svg" viewBox="0 0 303.54 292.93"><defs><style>.cls-1{fill:#fff;}</style></defs><title>Asset 3</title><g id="Layer_2" data-name="Layer 2"><g id="Layer_1-2" data-name="Layer 1"><path class="cls-1" d="M302.35,138.07A64.19,64.19,0,0,1,292,153.14a74,74,0,0,1-13.54,11.46,99.18,99.18,0,0,1-31.08,13.31,128,128,0,0,1-16.18,3A150.05,150.05,0,0,1,214.93,182c-1.35,0-2.7,0-4,0l-4-.08c-2.68-.14-5.37-.22-8-.48-5.34-.4-10.63-1.13-15.89-2a206.09,206.09,0,0,1-60-20.22,186.86,186.86,0,0,1-26.74-17C92,139,88,135.55,84.09,132a149.85,149.85,0,0,1-11-11.51,124.36,124.36,0,0,1-9.58-12.83,102.53,102.53,0,0,1-7.64-14.2,70.46,70.46,0,0,1-6.16-31.89A56.72,56.72,0,0,1,53,45.39,55.29,55.29,0,0,1,60.89,31c6.59-8.72,15.42-15.28,24.86-20a107,107,0,0,1,29.89-9.25A138.66,138.66,0,0,1,131.08.18c5.16-.25,10.33-.24,15.47,0A183.48,183.48,0,0,1,177,4.37a206.9,206.9,0,0,1,29.31,9,.53.53,0,0,1-.37,1h0a205.39,205.39,0,0,0-29.4-7.7,181.59,181.59,0,0,0-30.12-2.83q-7.56,0-15.06.64a134,134,0,0,0-14.84,2.21,101.57,101.57,0,0,0-27.89,9.93c-8.57,4.73-16.22,11-21.61,18.84a46.84,46.84,0,0,0-8.44,26.39,60.84,60.84,0,0,0,6.54,27.29,92.7,92.7,0,0,0,7.36,12.37,112.07,112.07,0,0,0,9.19,11.24,135.87,135.87,0,0,0,10.53,10.11c3.74,3.15,7.58,6.17,11.6,9a173.53,173.53,0,0,0,25.44,14.65,190.72,190.72,0,0,0,56.13,16.32c4.83.57,9.66,1,14.49,1.18,2.41.13,4.82.09,7.23.13l3.6-.09c1.21,0,2.4-.07,3.6-.16a128.44,128.44,0,0,0,14.2-1.55,107.68,107.68,0,0,0,13.73-3.12,79.44,79.44,0,0,0,24.37-11.61,47.06,47.06,0,0,0,15.83-18.92,11,11,0,0,1,20.17,8.8c-.06.15-.13.29-.2.44Z"/><path class="cls-1" d="M266.78,201.07a103.21,103.21,0,0,1-30.92,12,139.76,139.76,0,0,1-32,3.11,188.34,188.34,0,0,1-115-42.94,136.59,136.59,0,0,1-21.28-22.38,98.52,98.52,0,0,1-14.55-27.07,1.07,1.07,0,0,1,2-.76v0a95.36,95.36,0,0,0,15.86,25.15,131.44,131.44,0,0,0,21.9,20.06,175.78,175.78,0,0,0,53,25.93,171.76,171.76,0,0,0,57.78,7.2,123.13,123.13,0,0,0,28.08-4.69,85.52,85.52,0,0,0,24.71-11.53l.06,0a9.51,9.51,0,0,1,10.88,15.59Z"/><path class="cls-1" d="M215.46,240.27A130.08,130.08,0,0,1,176.3,242a150.29,150.29,0,0,1-37.52-8.82,152.13,152.13,0,0,1-33.85-17.57,129.4,129.4,0,0,1-27.67-25.72.82.82,0,0,1,.13-1.16.84.84,0,0,1,1.12.08,126.32,126.32,0,0,0,29,22.8,146,146,0,0,0,33.73,14.13A141.31,141.31,0,0,0,177,231.15a117.79,117.79,0,0,0,35.13-4.47A7,7,0,0,1,216,240.13c-.19.05-.37.1-.55.13Z"/><path class="cls-1" d="M0,145.84,0,144a15.7,15.7,0,0,1,.46-3.6,13.5,13.5,0,0,1,1.28-3.25l4,1.67a11.23,11.23,0,0,0-1.32,3.92A12.83,12.83,0,0,0,4.63,147a8,8,0,0,0,1.8,4,3.14,3.14,0,0,0,3,1h0a2.89,2.89,0,0,0,1.86-1.07,4,4,0,0,0,.74-2,22.49,22.49,0,0,0,.1-2.91.41.41,0,0,0,0-.11.24.24,0,0,1,0-.12v-.35a27.64,27.64,0,0,1,.18-4.69A6.55,6.55,0,0,1,14,137.33a7.28,7.28,0,0,1,4.26-2.12h0a8.3,8.3,0,0,1,4.63.29,7.42,7.42,0,0,1,3.45,2.82,13.68,13.68,0,0,1,2,5.12,14.1,14.1,0,0,1,.25,3,16,16,0,0,1-.39,3.06,16.31,16.31,0,0,1-1,3.05l-4.11-1.45a13.19,13.19,0,0,0,1.07-3.53,9.52,9.52,0,0,0-.05-3.29,7.24,7.24,0,0,0-1.72-3.8,3.09,3.09,0,0,0-2.94-.89h0a2.86,2.86,0,0,0-1.9,1.13,4.42,4.42,0,0,0-.73,2,31.91,31.91,0,0,0-.14,3.2v.29a1.7,1.7,0,0,0,0,.22v.21a23.19,23.19,0,0,1-.39,4.45,6.69,6.69,0,0,1-1.72,3.28,7.24,7.24,0,0,1-4,2h0A7.83,7.83,0,0,1,5.85,156a7.57,7.57,0,0,1-3.44-2.93,14.55,14.55,0,0,1-2-5.31Z"/><path class="cls-1" d="M34.59,166.34l1.19,3.1L13.71,189.12,12,184.56,28.6,170.44l-21.82.76L5,166.64Zm-18.84,1.39L21,181.32l-4.06,1.57L11.68,169.3Z"/><path class="cls-1" d="M42.79,184.94l2.36,3.89L21.48,203.18l-2.36-3.89ZM24,198.85l8.31,13.71-3.73,2.27-8.31-13.72Z"/><path class="cls-1" d="M61.76,212.2,64,214.68,50,240.78l-3.23-3.67,10.75-19-20.21,8.25-3.24-3.67ZM44.56,220l9.63,10.93-3.27,2.88-9.63-10.93Z"/><path class="cls-1" d="M75.75,226.82l3.58,2.81L62.24,251.42l-3.58-2.81Zm-12.33,20,5.08,4a6.28,6.28,0,0,0,4.3,1.58,5.1,5.1,0,0,0,3.69-2.19l5-6.41a5.13,5.13,0,0,0,1.25-4.1,6.25,6.25,0,0,0-2.57-3.81l-5.08-4,2.69-3.43,5,3.91a13.25,13.25,0,0,1,3.85,4.49,8.19,8.19,0,0,1,.79,4.93,10.8,10.8,0,0,1-2.32,5L80.27,253a10.77,10.77,0,0,1-4.24,3.4,8.18,8.18,0,0,1-5,.44,13,13,0,0,1-5.35-2.67l-5-3.9Z"/><path class="cls-1" d="M106.47,278.69l-1.55-1.06a15.49,15.49,0,0,1-2.75-2.38,13,13,0,0,1-2-2.86l3.62-2.44a11.31,11.31,0,0,0,2.54,3.26,12.65,12.65,0,0,0,3.63,2.24,7.93,7.93,0,0,0,4.37.73,3.15,3.15,0,0,0,2.48-2v0A2.91,2.91,0,0,0,117,272a4.13,4.13,0,0,0-1.24-1.71,22.24,22.24,0,0,0-2.37-1.68.27.27,0,0,0-.1-.06l-.1-.06-.3-.19a26.81,26.81,0,0,1-3.81-2.74,6.55,6.55,0,0,1-2-3.24,7.32,7.32,0,0,1,.58-4.72v0a8.17,8.17,0,0,1,2.8-3.7,7.27,7.27,0,0,1,4.25-1.32,13.58,13.58,0,0,1,5.37,1.15,13.85,13.85,0,0,1,2.63,1.45,14.81,14.81,0,0,1,2.34,2,16.64,16.64,0,0,1,2,2.53l-3.47,2.63a13.07,13.07,0,0,0-2.36-2.84,9.6,9.6,0,0,0-2.77-1.78,7.29,7.29,0,0,0-4.12-.65,3.05,3.05,0,0,0-2.36,2v0a2.83,2.83,0,0,0-.1,2.2,4.22,4.22,0,0,0,1.29,1.73,30.77,30.77,0,0,0,2.59,1.88l.13.09.12.08.18.11.17.12a21.78,21.78,0,0,1,3.5,2.77,6.8,6.8,0,0,1,1.79,3.25,7.27,7.27,0,0,1-.58,4.47l0,0a7.87,7.87,0,0,1-2.81,3.64,7.55,7.55,0,0,1-4.35,1.25,14.72,14.72,0,0,1-5.54-1.24Z"/><path class="cls-1" d="M135.91,259.65l4.44,1-6,27-4.44-1Zm-3,23.23,15.65,3.49-.95,4.26L132,287.13Z"/><path class="cls-1" d="M163.1,292.2l-4.63-.41,2.46-27.58,4.63.41Z"/><path class="cls-1" d="M182.57,292.93l-2.27-1.15a8.32,8.32,0,0,1-3.56-3.42,11.9,11.9,0,0,1-1.42-5.45l-.33-7.59a12.06,12.06,0,0,1,.95-5.55,8.43,8.43,0,0,1,3.26-3.72,10.46,10.46,0,0,1,5.17-1.48,9.59,9.59,0,0,1,4.56.87,9.2,9.2,0,0,1,3.5,2.93,12.5,12.5,0,0,1,2,4.67l-4.68.2A6.51,6.51,0,0,0,188.6,271a5.16,5.16,0,0,0-1.82-1.46,4.7,4.7,0,0,0-2.22-.44,5.1,5.1,0,0,0-2.7.83,4.7,4.7,0,0,0-1.69,2.1,7.19,7.19,0,0,0-.5,3.13l.33,7.59a7.07,7.07,0,0,0,.76,3.08,4.71,4.71,0,0,0,1.86,1.94,5.16,5.16,0,0,0,2.76.59,4.82,4.82,0,0,0,3.89-2.19,6.3,6.3,0,0,0,1-2.43l4.68-.2a12.91,12.91,0,0,1-1.65,4.83,9.16,9.16,0,0,1-3.24,3.22,9.5,9.5,0,0,1-4.45,1.25Z"/><path class="cls-1" d="M201.72,263.35l4.45-.94,5.74,27.08-4.45.95Zm1.85-.39,15.92-3.38.91,4.27-15.93,3.37ZM206,274.47l13.88-2.94.9,4.25-13.88,2.94Zm2.4,11.31,15.93-3.37.9,4.26-15.93,3.38Z"/><path class="cls-1" d="M227.07,257.22l4.22-1.72,10.46,25.66-4.21,1.72Zm6.25,10.33,8.84-3.6a3.15,3.15,0,0,0,1.38-1.07,3,3,0,0,0,.55-1.65,4.84,4.84,0,0,0-.37-2,4.5,4.5,0,0,0-1.12-1.69,3,3,0,0,0-1.55-.79,3,3,0,0,0-1.75.21l-8.83,3.6-1.65-4,9-3.65a8.12,8.12,0,0,1,4.19-.62,7,7,0,0,1,3.62,1.61,9.8,9.8,0,0,1,3.23,7.91,6.92,6.92,0,0,1-1.48,3.69,8.18,8.18,0,0,1-3.42,2.49L235,271.59Zm7.51.72,4-2.59,11.7,9.44-5.06,2.06Z"/></g></g></svg>