<svg xmlns="http://www.w3.org/2000/svg" viewBox="0 0 403.51 403.51"><defs><style>.cls-1{fill:#fff;}.cls-2{fill:#1d1d1b;}</style></defs><title>Asset 11</title><g id="Layer_2" data-name="Layer 2"><g id="Layer_1-2" data-name="Layer 1"><circle class="cls-1" cx="201.75" cy="201.75" r="201.75"/><path class="cls-2" d="M333.73,211.4a64.19,64.19,0,0,1-10.39,15.06,74.07,74.07,0,0,1-13.55,11.47,99.31,99.31,0,0,1-31.08,13.31,128,128,0,0,1-16.18,3,147.53,147.53,0,0,1-16.22,1.06c-1.35,0-2.69,0-4,0l-4-.08c-2.68-.14-5.36-.22-8-.48-5.34-.4-10.63-1.14-15.89-2a206,206,0,0,1-59.95-20.22,186.41,186.41,0,0,1-26.75-17c-4.21-3.21-8.24-6.66-12.14-10.25a148,148,0,0,1-11-11.51A123,123,0,0,1,94.87,181a102.53,102.53,0,0,1-7.64-14.2,70.35,70.35,0,0,1-6.15-31.89,55.11,55.11,0,0,1,11.19-30.51c6.59-8.72,15.42-15.27,24.86-20A107.37,107.37,0,0,1,147,75.13a141,141,0,0,1,15.44-1.62c5.17-.25,10.33-.24,15.47,0a184.82,184.82,0,0,1,30.5,4.19,208.45,208.45,0,0,1,29.3,9,.54.54,0,0,1-.37,1h0A205.87,205.87,0,0,0,208,80a180.53,180.53,0,0,0-30.12-2.83q-7.56,0-15.06.64a131.73,131.73,0,0,0-14.84,2.21A101.36,101.36,0,0,0,120,90c-8.56,4.72-16.22,11-21.6,18.83A47,47,0,0,0,90,135.21a61,61,0,0,0,6.54,27.29,94.43,94.43,0,0,0,7.36,12.37,113.21,113.21,0,0,0,9.19,11.24,136.09,136.09,0,0,0,10.54,10.11c3.73,3.14,7.57,6.17,11.59,9a174.44,174.44,0,0,0,25.44,14.65,190.68,190.68,0,0,0,56.14,16.31c4.82.57,9.65,1,14.48,1.19,2.41.13,4.82.09,7.23.12l3.61-.08c1.2,0,2.4-.08,3.59-.16a128.44,128.44,0,0,0,14.2-1.55,105.65,105.65,0,0,0,13.73-3.13A79.31,79.31,0,0,0,298,220.93,47.06,47.06,0,0,0,313.83,202a11,11,0,1,1,20.17,8.8c-.06.15-.13.29-.2.43Z"/><path class="cls-2" d="M298.17,274.4a103.64,103.64,0,0,1-30.93,12,139.76,139.76,0,0,1-32,3.11,188.5,188.5,0,0,1-115-42.94A136.59,136.59,0,0,1,99,224.18a98.52,98.52,0,0,1-14.55-27.07,1.08,1.08,0,0,1,2-.76v0a95.36,95.36,0,0,0,15.86,25.15,131.34,131.34,0,0,0,21.9,20,175.81,175.81,0,0,0,53,25.94,171.76,171.76,0,0,0,57.78,7.2A124.24,124.24,0,0,0,263.07,270a85.16,85.16,0,0,0,24.71-11.54l.06,0A9.51,9.51,0,0,1,298.72,274Z"/><path class="cls-2" d="M246.84,313.6a130.08,130.08,0,0,1-39.16,1.77A155.06,155.06,0,0,1,136.31,289a129.4,129.4,0,0,1-27.67-25.72.83.83,0,0,1,1.25-1.08,126.16,126.16,0,0,0,29,22.8,146.12,146.12,0,0,0,33.73,14.13,141.24,141.24,0,0,0,35.76,5.37A117.79,117.79,0,0,0,243.48,300a7,7,0,1,1,3.94,13.44,5.54,5.54,0,0,1-.55.14Z"/><path class="cls-2" d="M31.38,219.17l0-1.88a15.7,15.7,0,0,1,.46-3.6,13.12,13.12,0,0,1,1.29-3.25l4,1.67A11,11,0,0,0,35.88,216,12.62,12.62,0,0,0,36,220.3a8,8,0,0,0,1.8,4,3.18,3.18,0,0,0,3,1h0a2.89,2.89,0,0,0,1.86-1.07,4,4,0,0,0,.74-2,22.56,22.56,0,0,0,.1-2.91.37.37,0,0,0,0-.11.48.48,0,0,1,0-.12v-.35a27.64,27.64,0,0,1,.18-4.69,6.55,6.55,0,0,1,1.62-3.42,7.32,7.32,0,0,1,4.26-2.12h0a8.21,8.21,0,0,1,4.63.29,7.32,7.32,0,0,1,3.45,2.82,13.51,13.51,0,0,1,2,5.12,14,14,0,0,1,.25,3,16,16,0,0,1-1.41,6.11l-4.11-1.44a13.19,13.19,0,0,0,1.07-3.53,9.53,9.53,0,0,0,0-3.29,7.32,7.32,0,0,0-1.73-3.8,3.09,3.09,0,0,0-2.94-.89h0A2.85,2.85,0,0,0,48.89,214a4.4,4.4,0,0,0-.74,2,29.61,29.61,0,0,0-.13,3.2.76.76,0,0,0,0,.15.33.33,0,0,1,0,.14,1.7,1.7,0,0,0,0,.22V220a22.49,22.49,0,0,1-.38,4.45,6.8,6.8,0,0,1-1.73,3.28,7.21,7.21,0,0,1-4,2h0a7.91,7.91,0,0,1-4.59-.34,7.64,7.64,0,0,1-3.44-2.93,14.62,14.62,0,0,1-2-5.31Z"/><path class="cls-2" d="M66,239.67l1.2,3.09L45.09,262.45l-1.76-4.56L60,243.77l-21.82.76L36.4,240Zm-18.84,1.39,5.26,13.59-4.07,1.57-5.26-13.59Z"/><path class="cls-2" d="M74.18,258.27l2.36,3.89L52.86,276.51l-2.36-3.89ZM55.33,272.18l8.32,13.71-3.73,2.26L51.6,274.44Z"/><path class="cls-2" d="M93.15,285.53,95.34,288l-13.92,26.1-3.23-3.67,10.75-19-20.21,8.25L65.49,296ZM76,293.34l9.62,10.93-3.27,2.88-9.63-10.93Z"/><path class="cls-2" d="M107.13,300.15l3.58,2.81L93.62,324.75,90,321.94Zm-12.33,20,5.08,4a6.27,6.27,0,0,0,4.31,1.59,5.14,5.14,0,0,0,3.69-2.19l5-6.41a5.12,5.12,0,0,0,1.24-4.1,6.25,6.25,0,0,0-2.57-3.81l-5.08-4,2.7-3.44,5,3.92a13.25,13.25,0,0,1,3.85,4.49,8.1,8.1,0,0,1,.79,4.93,10.7,10.7,0,0,1-2.32,5l-4.84,6.17a10.81,10.81,0,0,1-4.25,3.41,8.25,8.25,0,0,1-5,.44,13,13,0,0,1-5.35-2.67l-5-3.9Z"/><path class="cls-2" d="M137.85,352,136.3,351a15.85,15.85,0,0,1-2.75-2.38,13.27,13.27,0,0,1-2-2.86l3.62-2.44a11.26,11.26,0,0,0,2.54,3.25,12.46,12.46,0,0,0,3.63,2.25,7.93,7.93,0,0,0,4.37.73,3.15,3.15,0,0,0,2.48-2v0a2.91,2.91,0,0,0,.14-2.13,4,4,0,0,0-1.24-1.71,22.24,22.24,0,0,0-2.37-1.68.27.27,0,0,0-.1-.06l-.1-.07-.29-.18a28.44,28.44,0,0,1-3.82-2.74,6.55,6.55,0,0,1-2-3.24A7.32,7.32,0,0,1,139,331v0a8.17,8.17,0,0,1,2.8-3.7,7.35,7.35,0,0,1,4.25-1.33,13.79,13.79,0,0,1,5.37,1.16,13.55,13.55,0,0,1,2.63,1.45,14.81,14.81,0,0,1,2.34,2,16,16,0,0,1,2,2.53L155,335.68a13.32,13.32,0,0,0-2.35-2.84,9.65,9.65,0,0,0-2.77-1.78,7.43,7.43,0,0,0-4.13-.66,3.08,3.08,0,0,0-2.36,2h0a2.85,2.85,0,0,0-.1,2.21,4.35,4.35,0,0,0,1.29,1.73,29.61,29.61,0,0,0,2.6,1.88l.12.08.12.08.18.12.18.11a23.33,23.33,0,0,1,3.5,2.78,6.79,6.79,0,0,1,1.78,3.25,7.27,7.27,0,0,1-.58,4.47l0,0a7.81,7.81,0,0,1-2.81,3.64,7.55,7.55,0,0,1-4.35,1.25,14.72,14.72,0,0,1-5.54-1.24Z"/><path class="cls-2" d="M167.29,333l4.45,1-6,27-4.44-1Zm-3,23.24,15.65,3.49L179,364l-15.65-3.5Z"/><path class="cls-2" d="M194.48,365.53l-4.63-.41,2.46-27.58,4.63.41Z"/><path class="cls-2" d="M214,366.26l-2.27-1.15a8.44,8.44,0,0,1-3.56-3.42,11.9,11.9,0,0,1-1.42-5.45l-.33-7.59a11.89,11.89,0,0,1,1-5.55,8.4,8.4,0,0,1,3.25-3.72,10.46,10.46,0,0,1,5.17-1.48,9.59,9.59,0,0,1,4.56.87,9.11,9.11,0,0,1,3.5,2.93,12.5,12.5,0,0,1,2,4.67l-4.68.2a6.81,6.81,0,0,0-1.18-2.29,5.25,5.25,0,0,0-1.83-1.45,4.65,4.65,0,0,0-2.22-.44,5.13,5.13,0,0,0-2.7.83,4.7,4.7,0,0,0-1.69,2.1,7.19,7.19,0,0,0-.5,3.13l.33,7.59a7.1,7.1,0,0,0,.76,3.08,4.77,4.77,0,0,0,1.86,1.94,5.17,5.17,0,0,0,2.77.58A4.7,4.7,0,0,0,219,361a5.07,5.07,0,0,0,1.7-1.57,6.45,6.45,0,0,0,1-2.43l4.68-.2a12.73,12.73,0,0,1-1.65,4.83,9.25,9.25,0,0,1-3.24,3.22,9.59,9.59,0,0,1-4.45,1.25Z"/><path class="cls-2" d="M233.1,336.68l4.46-.95,5.73,27.09-4.45.95Zm1.85-.39,15.93-3.38.9,4.27-15.93,3.37Zm2.44,11.51,13.88-2.94.9,4.25-13.88,2.94Zm2.39,11.31,15.93-3.38.9,4.27-15.92,3.37Z"/><path class="cls-2" d="M258.46,330.55l4.21-1.72,10.46,25.66-4.21,1.72Zm6.24,10.33,8.84-3.6a3.1,3.1,0,0,0,1.38-1.07,3,3,0,0,0,.55-1.65,4.84,4.84,0,0,0-.37-2,4.61,4.61,0,0,0-1.11-1.69,3,3,0,0,0-3.31-.58l-8.83,3.6-1.65-4,9-3.65a8.13,8.13,0,0,1,4.19-.62,7,7,0,0,1,3.63,1.61,8.79,8.79,0,0,1,2.51,3.58,8.91,8.91,0,0,1,.71,4.33,7,7,0,0,1-1.47,3.69,8.2,8.2,0,0,1-3.42,2.48l-9,3.66Zm7.51.72,4.05-2.59,11.7,9.43-5.06,2.07Z"/></g></g></svg>