<svg xmlns="http://www.w3.org/2000/svg" viewBox="0 0 253.95 242.76"><defs><style>.cls-1{fill:#1d1d1b;}</style></defs><title>Asset 8</title><g id="Layer_2" data-name="Layer 2"><g id="Layer_1-2" data-name="Layer 1"><path class="cls-1" d="M252.75,138.07a64.46,64.46,0,0,1-10.39,15.07,74.07,74.07,0,0,1-13.55,11.46,99,99,0,0,1-31.08,13.31,127.65,127.65,0,0,1-16.18,3A149.87,149.87,0,0,1,165.34,182c-1.35,0-2.7,0-4,0l-4-.08c-2.68-.14-5.36-.22-8-.48-5.35-.4-10.64-1.13-15.89-2a206,206,0,0,1-60-20.22,187.52,187.52,0,0,1-26.75-17C42.43,139,38.4,135.55,34.5,132a148,148,0,0,1-11-11.51,124.45,124.45,0,0,1-9.59-12.83,104.7,104.7,0,0,1-7.64-14.2A70.45,70.45,0,0,1,.1,61.53,56.38,56.38,0,0,1,3.42,45.39,55.25,55.25,0,0,1,11.29,31c6.59-8.72,15.43-15.28,24.87-20A106.86,106.86,0,0,1,66,1.81,138.58,138.58,0,0,1,81.49.18Q89.23-.19,97,.19a183.75,183.75,0,0,1,30.5,4.18,206.77,206.77,0,0,1,29.3,9,.53.53,0,0,1,.31.69.55.55,0,0,1-.68.31h0A205.74,205.74,0,0,0,127,6.7,181.71,181.71,0,0,0,96.85,3.87c-5,0-10.06.19-15.06.64A134.4,134.4,0,0,0,67,6.72a101.69,101.69,0,0,0-27.89,9.93c-8.56,4.73-16.21,11-21.6,18.84a47.15,47.15,0,0,0-6.23,12.6A47.91,47.91,0,0,0,9,61.88a60.86,60.86,0,0,0,6.55,27.29,91.64,91.64,0,0,0,7.36,12.37,110.61,110.61,0,0,0,9.18,11.24,134.24,134.24,0,0,0,10.54,10.11c3.73,3.15,7.57,6.17,11.6,9A172.5,172.5,0,0,0,79.68,146.5a190.63,190.63,0,0,0,56.13,16.32c4.82.57,9.65,1,14.48,1.18,2.42.13,4.83.09,7.23.13l3.61-.09c1.2,0,2.4-.07,3.59-.16a128.88,128.88,0,0,0,14.21-1.55,107.53,107.53,0,0,0,13.72-3.12A79.38,79.38,0,0,0,217,147.6a47,47,0,0,0,15.82-18.92,11,11,0,0,1,20.18,8.8l-.2.44Z"/><path class="cls-1" d="M217.19,201.07a103.27,103.27,0,0,1-30.93,12,139.73,139.73,0,0,1-31.95,3.11,188.33,188.33,0,0,1-115-42.94A136.59,136.59,0,0,1,18,150.85,98.79,98.79,0,0,1,3.47,123.78a1.08,1.08,0,0,1,2-.76v0a95.07,95.07,0,0,0,15.85,25.15,131.83,131.83,0,0,0,21.9,20.06,175.78,175.78,0,0,0,53,25.93,171.82,171.82,0,0,0,57.78,7.2,123,123,0,0,0,28.08-4.69,85.28,85.28,0,0,0,24.71-11.53l.06,0a9.51,9.51,0,1,1,10.88,15.59Z"/><path class="cls-1" d="M165.87,240.27A130.15,130.15,0,0,1,126.7,242a150.29,150.29,0,0,1-37.52-8.82,152.06,152.06,0,0,1-33.84-17.57,129.46,129.46,0,0,1-27.68-25.72.83.83,0,0,1,.14-1.16.84.84,0,0,1,1.12.08,125.9,125.9,0,0,0,29,22.8,145.68,145.68,0,0,0,33.73,14.13,141.3,141.3,0,0,0,35.76,5.37,117.79,117.79,0,0,0,35.13-4.47,7,7,0,1,1,3.94,13.45,5.47,5.47,0,0,1-.55.13Z"/></g></g></svg>